<svg width="31" height="32" viewBox="0 0 31 32" fill="none" xmlns="http://www.w3.org/2000/svg">
<path d="M15.2 5.33333C13.7272 5.33333 12.5333 4.13943 12.5333 2.66667C12.5333 1.19391 13.7272 0 15.2 0C16.6728 0 17.8667 1.19391 17.8667 2.66667C17.8667 4.13943 16.6728 5.33333 15.2 5.33333ZM24.628 9.10533C23.2289 9.10533 22.0947 7.97112 22.0947 6.572C22.0947 5.17288 23.2289 4.03867 24.628 4.03867C26.0271 4.03867 27.1613 5.17288 27.1613 6.572C27.1613 7.97112 26.0271 9.10533 24.628 9.10533ZM28.5333 18.4C27.2078 18.4 26.1333 17.3255 26.1333 16C26.1333 14.6745 27.2078 13.6 28.5333 13.6C29.8588 13.6 30.9333 14.6745 30.9333 16C30.9333 17.3255 29.8588 18.4 28.5333 18.4ZM24.628 27.6947C23.3762 27.6947 22.3613 26.6798 22.3613 25.428C22.3613 24.1762 23.3762 23.1613 24.628 23.1613C25.8798 23.1613 26.8947 24.1762 26.8947 25.428C26.8947 26.6798 25.8798 27.6947 24.628 27.6947ZM15.2 31.4667C14.0218 31.4667 13.0667 30.5115 13.0667 29.3333C13.0667 28.1551 14.0218 27.2 15.2 27.2C16.3782 27.2 17.3333 28.1551 17.3333 29.3333C17.3333 30.5115 16.3782 31.4667 15.2 31.4667ZM5.772 27.428C4.66743 27.428 3.772 26.5326 3.772 25.428C3.772 24.3234 4.66743 23.428 5.772 23.428C6.87657 23.428 7.772 24.3234 7.772 25.428C7.772 26.5326 6.87657 27.428 5.772 27.428ZM1.86667 17.8667C0.835735 17.8667 0 17.0309 0 16C0 14.9691 0.835735 14.1333 1.86667 14.1333C2.8976 14.1333 3.73333 14.9691 3.73333 16C3.73333 17.0309 2.8976 17.8667 1.86667 17.8667ZM5.772 8.30533C4.81471 8.30533 4.03867 7.52929 4.03867 6.572C4.03867 5.61471 4.81471 4.83867 5.772 4.83867C6.72929 4.83867 7.50533 5.61471 7.50533 6.572C7.50533 7.52929 6.72929 8.30533 5.772 8.30533Z" fill="#042642"/>
<path d="M15.2 5.33333C13.7272 5.33333 12.5333 4.13943 12.5333 2.66667C12.5333 1.19391 13.7272 0 15.2 0C16.6728 0 17.8667 1.19391 17.8667 2.66667C17.8667 4.13943 16.6728 5.33333 15.2 5.33333ZM24.628 9.10533C23.2289 9.10533 22.0947 7.97112 22.0947 6.572C22.0947 5.17288 23.2289 4.03867 24.628 4.03867C26.0271 4.03867 27.1613 5.17288 27.1613 6.572C27.1613 7.97112 26.0271 9.10533 24.628 9.10533ZM28.5333 18.4C27.2078 18.4 26.1333 17.3255 26.1333 16C26.1333 14.6745 27.2078 13.6 28.5333 13.6C29.8588 13.6 30.9333 14.6745 30.9333 16C30.9333 17.3255 29.8588 18.4 28.5333 18.4ZM24.628 27.6947C23.3762 27.6947 22.3613 26.6798 22.3613 25.428C22.3613 24.1762 23.3762 23.1613 24.628 23.1613C25.8798 23.1613 26.8947 24.1762 26.8947 25.428C26.8947 26.6798 25.8798 27.6947 24.628 27.6947ZM15.2 31.4667C14.0218 31.4667 13.0667 30.5115 13.0667 29.3333C13.0667 28.1551 14.0218 27.2 15.2 27.2C16.3782 27.2 17.3333 28.1551 17.3333 29.3333C17.3333 30.5115 16.3782 31.4667 15.2 31.4667ZM5.772 27.428C4.66743 27.428 3.772 26.5326 3.772 25.428C3.772 24.3234 4.66743 23.428 5.772 23.428C6.87657 23.428 7.772 24.3234 7.772 25.428C7.772 26.5326 6.87657 27.428 5.772 27.428ZM1.86667 17.8667C0.835735 17.8667 0 17.0309 0 16C0 14.9691 0.835735 14.1333 1.86667 14.1333C2.8976 14.1333 3.73333 14.9691 3.73333 16C3.73333 17.0309 2.8976 17.8667 1.86667 17.8667ZM5.772 8.30533C4.81471 8.30533 4.03867 7.52929 4.03867 6.572C4.03867 5.61471 4.81471 4.83867 5.772 4.83867C6.72929 4.83867 7.50533 5.61471 7.50533 6.572C7.50533 7.52929 6.72929 8.30533 5.772 8.30533Z" fill="black" fill-opacity="0.25"/>
</svg>
